<?xml version="1.0" standalone="no"?>
<!DOCTYPE svg PUBLIC "-//W3C//DTD SVG 20010904//EN"
 "http://www.w3.org/TR/2001/REC-SVG-20010904/DTD/svg10.dtd">
<svg version="1.0" xmlns="http://www.w3.org/2000/svg"
 width="626.000000pt" height="626.000000pt" viewBox="0 0 626.000000 626.000000"
 preserveAspectRatio="xMidYMid meet">
<metadata>
Created by potrace 1.11, written by Peter Selinger 2001-2013
</metadata>
<g transform="translate(0.000000,626.000000) scale(0.100000,-0.100000)"
fill="#000000" stroke="none">
<path d="M3113 4718 c2 -564 4 -643 17 -643 13 0 15 66 18 528 2 407 -1 527
-10 527 -9 0 -9 3 0 12 8 8 12 48 12 115 0 96 -1 103 -20 103 -19 0 -19 -9
-17 -642z"/>
<path d="M4070 5020 c-32 -66 -41 -93 -33 -101 18 -18 31 -3 73 82 44 87 49
109 22 109 -13 0 -31 -26 -62 -90z"/>
<path d="M1997 5054 c-4 -4 -7 -13 -7 -20 0 -21 94 -174 108 -174 7 0 10 -5 7
-10 -5 -9 47 -104 165 -300 5 -8 61 -105 126 -215 213 -364 229 -390 247 -393
11 -2 17 3 17 13 0 19 -338 598 -351 603 -5 2 -9 9 -9 14 0 17 -161 288 -171
288 -5 0 -9 8 -9 18 -1 20 -91 174 -106 179 -6 2 -13 0 -17 -3z"/>
<path d="M3930 4748 c-45 -90 -152 -299 -237 -465 -85 -167 -151 -307 -148
-313 4 -6 13 -10 22 -8 8 2 89 149 180 328 91 179 196 387 235 462 38 75 67
142 63 148 -17 27 -39 -2 -115 -152z"/>
<path d="M3530 4798 c-18 -42 -71 -269 -65 -279 15 -23 35 -5 49 44 35 121 58
228 52 242 -8 22 -25 18 -36 -7z"/>
<path d="M2588 4785 c-3 -4 5 -41 18 -83 13 -42 34 -107 45 -144 17 -55 25
-68 41 -68 18 0 19 4 14 35 -4 19 -24 85 -45 147 -34 104 -53 133 -73 113z"/>
<path d="M3441 4453 c-60 -228 -98 -400 -91 -407 23 -23 38 13 88 215 29 118
52 217 52 222 0 4 -9 7 -20 7 -14 0 -22 -10 -29 -37z"/>
<path d="M2690 4453 c0 -9 29 -108 65 -220 56 -173 69 -203 85 -203 11 0 20 3
20 8 0 4 -30 103 -67 220 -55 173 -70 212 -85 212 -10 0 -18 -7 -18 -17z"/>
<path d="M1903 4354 c-4 -11 25 -47 98 -120 96 -97 127 -116 136 -88 5 14
-197 224 -215 224 -7 0 -15 -7 -19 -16z"/>
<path d="M4221 4264 c-97 -102 -112 -126 -80 -132 22 -4 223 203 216 222 -12
31 -36 15 -136 -90z"/>
<path d="M4385 3904 c-236 -141 -436 -260 -442 -266 -18 -15 -16 -38 3 -38 8
0 160 86 337 192 177 105 375 223 440 261 81 49 117 76 117 89 0 10 -6 18 -12
18 -7 0 -206 -115 -443 -256z"/>
<path d="M2140 4112 c0 -19 298 -322 317 -322 38 0 12 36 -133 181 -87 87
-164 159 -171 159 -7 0 -13 -8 -13 -18z"/>
<path d="M3939 3975 c-85 -85 -155 -159 -157 -165 -2 -5 4 -13 13 -16 13 -5
57 33 171 147 141 140 177 189 141 189 -7 0 -83 -70 -168 -155z"/>
<path d="M1363 4054 c-3 -8 -2 -19 3 -23 5 -5 79 -44 164 -88 169 -87 511
-266 658 -345 89 -48 116 -53 110 -21 -3 14 -89 62 -483 267 -88 46 -221 116
-296 155 -75 39 -139 71 -143 71 -3 0 -9 -7 -13 -16z"/>
<path d="M4618 3626 c-133 -43 -160 -58 -141 -77 8 -8 49 1 144 31 148 47 165
55 148 76 -14 17 1 20 -151 -30z"/>
<path d="M1030 3590 c-98 -10 -158 -31 -239 -81 -174 -110 -245 -226 -201
-327 41 -93 83 -112 73 -34 -4 37 1 61 21 113 59 146 278 310 390 292 31 -5
37 -11 46 -42 5 -20 10 -44 10 -53 0 -31 -67 -221 -124 -352 -31 -71 -59 -148
-63 -171 -13 -95 82 -176 169 -145 21 7 46 29 68 60 19 28 38 49 42 47 4 -1
18 -22 30 -47 28 -56 62 -74 123 -64 125 18 296 206 425 464 78 158 93 235 54
287 -37 49 -55 38 -86 -52 -42 -122 -142 -340 -206 -449 -45 -77 -117 -171
-145 -191 -26 -18 -67 -20 -68 -2 -4 42 21 136 55 209 23 49 66 166 81 221 18
61 6 90 -44 110 -45 19 -57 10 -63 -48 -10 -85 -175 -394 -246 -460 -27 -25
-66 -33 -77 -15 -13 20 31 137 137 370 57 124 79 193 72 225 -10 49 -40 89
-81 109 -21 10 -46 22 -55 27 -10 5 -19 8 -20 7 -2 0 -37 -4 -78 -8z m275
-648 c-3 -3 -11 0 -18 7 -9 10 -8 11 6 5 10 -3 15 -9 12 -12z"/>
<path d="M1456 3565 c-7 -19 9 -26 138 -60 80 -21 101 -24 107 -13 5 7 7 17 6
23 -3 8 -204 64 -233 65 -7 0 -15 -7 -18 -15z"/>
<path d="M4440 3549 c7 -11 14 -18 17 -15 8 8 -5 36 -17 36 -7 0 -7 -6 0 -21z"/>
<path d="M3216 3538 c-2 -13 -9 -50 -16 -83 -14 -73 -68 -243 -80 -250 -5 -3
-25 6 -45 19 -95 65 -149 35 -236 -129 -17 -33 -55 -91 -85 -130 -125 -167
-157 -164 -91 6 89 227 93 250 47 274 -16 8 -39 15 -50 15 -25 0 -115 -87
-178 -172 -67 -91 -84 -92 -47 -3 39 99 40 111 11 139 -14 15 -36 26 -49 26
-20 0 -27 -8 -37 -45 -7 -25 -17 -48 -21 -51 -5 -3 -9 -13 -9 -22 0 -22 -107
-171 -168 -234 -45 -47 -72 -60 -72 -36 0 11 60 183 85 243 28 68 28 84 -5
116 -35 36 -60 34 -78 -4 -16 -33 -23 -33 -48 -6 -27 29 -68 49 -103 49 -34 0
-86 -46 -117 -103 -62 -115 -86 -167 -100 -218 -16 -57 -16 -59 5 -85 28 -36
75 -64 106 -64 14 0 41 15 64 35 46 42 58 43 67 10 4 -18 16 -27 43 -35 42
-12 98 -13 103 -2 2 4 32 34 67 67 61 58 63 59 58 30 -6 -33 14 -79 38 -89 39
-14 63 -6 74 25 12 34 32 63 109 152 85 98 123 139 128 135 6 -6 -10 -52 -50
-148 -20 -47 -36 -95 -36 -108 0 -37 52 -82 95 -82 31 0 45 9 100 63 l65 63
10 -31 c14 -43 66 -79 112 -79 31 -1 45 7 74 37 35 36 54 40 54 12 0 -7 21
-23 46 -35 39 -20 51 -21 82 -12 37 12 52 25 134 116 l44 48 -4 -37 c-4 -31 1
-42 29 -72 40 -41 79 -63 111 -63 64 0 223 121 308 234 80 106 86 112 104 97
26 -22 19 -60 -29 -155 -60 -120 -59 -162 6 -185 75 -26 104 -11 196 104 l32
40 -6 -36 c-4 -28 0 -41 22 -67 44 -52 105 -38 189 45 44 43 46 44 46 20 0
-15 14 -40 34 -61 49 -53 88 -48 168 24 42 36 49 39 54 23 16 -51 27 -65 59
-78 24 -10 41 -12 58 -6 29 11 109 90 155 152 17 24 47 64 65 89 18 25 40 45
48 45 8 0 22 -23 34 -59 20 -58 20 -59 0 -70 -11 -6 -37 -27 -57 -47 -71 -68
-42 -149 45 -130 74 17 127 73 148 156 15 60 19 65 58 88 l30 17 -8 -27 c-5
-16 -16 -45 -25 -67 -9 -21 -16 -54 -16 -72 0 -28 6 -38 33 -54 50 -31 88 -26
145 19 47 38 77 73 172 201 38 51 51 90 31 90 -5 0 -41 -44 -81 -97 -90 -121
-139 -173 -162 -173 -10 0 -18 2 -18 5 0 2 15 46 34 97 18 51 43 122 54 158
38 116 68 190 83 206 11 11 42 16 110 18 74 2 93 6 91 17 -8 34 -40 44 -136
39 -44 -2 -48 0 -41 16 5 11 9 38 9 62 1 41 -1 44 -47 70 -45 25 -49 26 -61 9
-7 -9 -19 -45 -26 -80 -20 -103 -16 -97 -72 -97 -29 0 -66 5 -85 12 -41 15
-46 10 -32 -31 14 -39 56 -63 98 -55 41 9 47 -10 21 -70 -11 -26 -20 -56 -20
-65 0 -41 -97 -141 -136 -141 -10 0 -64 81 -101 152 -13 24 -12 31 7 69 46 88
63 192 38 217 -36 36 -120 -2 -173 -77 -39 -55 -39 -123 -2 -201 24 -51 25
-55 10 -84 -49 -97 -196 -267 -213 -250 -7 7 11 66 50 168 33 87 60 171 60
187 0 31 -43 72 -69 67 -10 -2 -26 -32 -41 -73 -14 -39 -40 -98 -59 -132 -40
-74 -171 -213 -200 -213 -12 0 -21 4 -21 8 0 11 69 182 86 214 33 62 45 111
33 140 -11 28 -46 45 -71 35 -7 -2 -21 -29 -32 -58 -31 -92 -101 -201 -188
-294 -76 -81 -76 -55 -4 155 35 102 74 212 86 245 12 33 30 89 41 124 l19 64
-41 39 c-38 36 -72 48 -83 29 -3 -5 -8 -29 -11 -52 -3 -24 -10 -57 -15 -74
-11 -34 -66 -208 -88 -275 -16 -50 -178 -299 -204 -314 -34 -20 -32 7 10 127
23 67 42 130 42 139 0 9 -22 36 -50 60 -27 24 -50 50 -50 59 0 9 9 36 19 60
23 54 32 136 18 166 -15 33 -55 29 -113 -9 -99 -67 -118 -166 -48 -249 30 -36
33 -44 21 -58 -123 -149 -173 -199 -244 -247 -96 -63 -150 -55 -133 20 11 52
17 56 75 56 45 0 60 5 97 33 47 36 88 98 88 135 0 55 -69 132 -119 132 -15 0
-42 -7 -60 -16 -31 -16 -119 -112 -142 -157 -22 -42 -112 -152 -163 -200 -46
-44 -51 -46 -54 -27 -3 20 39 150 115 355 60 165 83 236 83 262 0 23 -21 43
-67 67 -42 21 -52 20 -57 -6z m702 -137 c6 -37 -39 -152 -57 -149 -21 4 -26
43 -11 93 23 79 60 109 68 56z m1135 -24 c-3 -56 -32 -122 -53 -122 -22 0 -19
82 5 134 26 59 51 52 48 -12z m-1458 -227 c-9 -29 -74 -100 -90 -100 -26 0
-21 25 13 72 37 52 62 72 75 58 5 -4 6 -18 2 -30z m-1545 5 c16 -19 12 -28
-56 -133 -67 -102 -122 -172 -135 -172 -25 0 4 112 54 205 55 103 105 139 137
100z m600 -1 c0 -8 -5 -12 -11 -8 -6 3 -15 0 -20 -7 -6 -9 -9 -10 -9 -2 0 7 8
17 18 22 22 13 22 14 22 -5z m448 -12 c7 -46 -163 -297 -193 -285 -20 7 -19
12 15 102 32 83 99 195 122 204 27 12 53 2 56 -21z m351 -106 c9 3 6 -1 -6 -7
-12 -6 -24 -19 -26 -28 -2 -9 -4 -1 -4 17 0 21 4 29 10 23 5 -5 17 -7 26 -5z
m-1375 -27 c-3 -5 -10 -7 -15 -3 -5 3 -7 10 -3 15 3 5 10 7 15 3 5 -3 7 -10 3
-15z m-31 -59 c3 -11 1 -20 -4 -20 -5 0 -9 9 -9 20 0 11 2 20 4 20 2 0 6 -9 9
-20z m1033 11 c-3 -5 1 -11 9 -15 8 -3 15 -13 15 -22 0 -13 -3 -14 -13 -5 -8
6 -16 8 -19 5 -3 -2 -5 7 -5 21 0 14 4 25 9 25 5 0 7 -4 4 -9z m1564 -37 c0
-8 -19 -13 -24 -6 -3 5 1 9 9 9 8 0 15 -2 15 -3z m-2610 -15 c0 -5 -4 -7 -10
-4 -5 3 -10 1 -10 -5 0 -6 -4 -8 -10 -5 -17 10 -11 25 10 25 11 0 20 -5 20
-11z m1044 -15 c5 -14 4 -15 -9 -4 -17 14 -19 20 -6 20 5 0 12 -7 15 -16z
m1927 -7 c-4 -45 -29 -75 -52 -61 -14 8 -11 19 12 48 19 24 41 32 40 13z"/>
<path d="M4103 3463 c-57 -19 -73 -29 -73 -44 0 -23 12 -24 76 -3 46 15 84 45
84 65 0 12 -4 11 -87 -18z"/>
<path d="M1956 3436 c-3 -11 -4 -21 -3 -22 1 -1 59 -17 130 -35 98 -25 130
-30 139 -21 20 20 -2 31 -135 65 -123 32 -126 33 -131 13z"/>
<path d="M1517 3130 c-3 -11 -1 -20 4 -20 4 0 13 9 19 20 8 16 8 20 -3 20 -8
0 -17 -9 -20 -20z"/>
<path d="M4530 2750 c0 -5 6 -10 13 -10 6 0 23 -3 37 -6 24 -6 25 -6 5 9 -22
18 -55 22 -55 7z"/>
<path d="M1910 2735 c-14 -8 -44 -14 -67 -15 -40 0 -55 -11 -34 -24 13 -8 151
35 145 45 -7 12 -15 11 -44 -6z"/>
<path d="M4711 2716 l-34 -12 58 -13 c48 -11 59 -11 66 0 6 9 3 18 -8 27 -20
15 -37 14 -82 -2z"/>
<path d="M1622 2675 c-73 -24 -136 -46 -140 -49 -3 -4 1 -13 9 -21 12 -13 31
-9 144 26 131 41 163 58 151 78 -10 15 -15 14 -164 -34z"/>
<path d="M3967 2703 c-18 -17 -1 -34 69 -72 58 -31 86 -41 122 -41 l47 0 -110
60 c-117 63 -118 64 -128 53z"/>
<path d="M2240 2625 l-55 -35 43 0 c47 0 102 30 102 56 0 23 -31 16 -90 -21z"/>
<path d="M5160 2590 l0 -70 -2073 0 -2073 0 -59 60 c-39 40 -63 56 -69 50 -7
-7 6 -27 39 -60 27 -28 43 -50 35 -50 -8 0 -40 25 -71 56 -35 35 -62 54 -69
49 -8 -5 4 -23 36 -56 27 -27 44 -49 38 -49 -5 0 -34 25 -64 55 -49 49 -80 68
-80 48 0 -4 21 -29 47 -55 28 -28 41 -48 32 -48 -8 0 -39 25 -69 55 -49 50
-80 68 -80 47 0 -4 23 -30 50 -57 28 -27 50 -54 50 -59 0 -6 -23 -34 -52 -63
-35 -35 -49 -56 -42 -63 7 -7 28 8 64 45 30 30 61 55 69 55 9 0 -3 -18 -29
-45 -29 -30 -41 -48 -34 -55 6 -6 28 9 64 45 30 30 61 55 69 55 9 0 -5 -20
-33 -49 -32 -33 -44 -51 -36 -56 7 -5 34 14 69 49 31 31 61 56 66 56 5 0 -11
-20 -35 -45 -29 -30 -41 -48 -34 -55 6 -6 28 9 64 45 l54 55 2078 0 2078 0 0
-70 c0 -38 3 -70 8 -70 12 -1 402 155 402 160 0 6 -390 161 -402 160 -5 0 -8
-31 -8 -70z m235 -120 c-22 -10 -77 -34 -122 -54 l-83 -35 0 54 0 55 123 -1
122 0 -40 -19z"/>
<path d="M1765 2342 c-61 -37 -163 -98 -228 -136 -81 -48 -117 -75 -117 -88 0
-10 6 -18 13 -18 10 0 509 290 526 306 2 2 -16 4 -40 4 -36 -1 -63 -12 -154
-68z"/>
<path d="M2262 2287 c-111 -112 -143 -157 -109 -157 7 0 75 63 152 140 131
131 138 140 110 140 -25 0 -50 -20 -153 -123z"/>
<path d="M3955 2270 c77 -77 145 -140 152 -140 34 0 2 46 -110 158 -101 101
-127 122 -152 122 -28 0 -20 -9 110 -140z"/>
<path d="M4480 2399 c8 -5 40 -22 70 -38 30 -15 116 -60 191 -99 75 -40 141
-72 148 -72 7 0 11 9 9 21 -5 32 -332 199 -390 199 -33 0 -39 -3 -28 -11z"/>
<path d="M3600 2304 c0 -18 338 -597 351 -602 5 -2 9 -8 9 -14 0 -17 161 -288
171 -288 5 0 9 -7 9 -15 0 -8 23 -53 51 -100 48 -81 74 -102 74 -59 0 27 -87
174 -103 174 -7 0 -10 5 -7 10 4 6 -31 74 -77 151 -46 78 -96 165 -113 194
-183 322 -332 564 -347 565 -10 0 -18 -7 -18 -16z"/>
<path d="M2451 1848 c-127 -249 -232 -462 -234 -473 -1 -11 5 -21 14 -23 13
-2 37 38 99 160 45 90 152 299 237 465 85 167 152 307 148 313 -3 5 -12 10
-20 10 -8 0 -109 -188 -244 -452z"/>
<path d="M3400 2219 c0 -6 30 -105 67 -220 54 -170 70 -209 85 -209 10 0 18 7
18 16 0 17 -87 300 -117 382 -11 29 -22 42 -34 42 -11 0 -19 -5 -19 -11z"/>
<path d="M2875 2208 c-8 -25 -105 -417 -105 -428 0 -5 9 -10 20 -10 22 0 16
-17 84 254 25 99 42 184 40 188 -8 12 -34 9 -39 -4z"/>
<path d="M3117 2184 c-4 -4 -7 -243 -7 -531 0 -400 3 -523 12 -523 9 0 9 -3 0
-12 -8 -8 -12 -48 -12 -115 0 -96 1 -103 20 -103 19 0 19 9 17 642 -2 618 -4
667 -30 642z"/>
<path d="M2001 2026 c-73 -73 -102 -109 -98 -120 4 -9 12 -16 19 -16 18 0 220
209 215 223 -9 29 -39 10 -136 -87z"/>
<path d="M4125 2119 c-8 -12 5 -27 119 -146 80 -84 102 -96 113 -67 4 11 -25
47 -98 120 -101 102 -121 115 -134 93z"/>
<path d="M3550 1754 c0 -34 84 -276 98 -281 32 -13 29 19 -16 155 -37 113 -50
142 -64 142 -10 0 -18 -7 -18 -16z"/>
<path d="M2747 1703 c-41 -138 -61 -243 -49 -255 9 -9 15 -9 23 -1 14 14 81
281 74 294 -14 22 -35 6 -48 -38z"/>
<path d="M2192 1338 c-18 -23 -82 -157 -82 -173 0 -8 8 -15 18 -15 21 0 109
170 98 189 -9 14 -21 14 -34 -1z"/>
</g>
</svg>
